<svg width="83" height="111" viewBox="0 0 83 111" fill="none" xmlns="http://www.w3.org/2000/svg">
<path d="M13.9094 17.3437C13.9993 18.3694 14.7752 19.1952 15.8075 19.3318C16.1305 19.3767 16.4652 19.3601 16.7982 19.3601H48.5214C50.2997 19.3601 51.252 20.056 51.2454 21.3531C51.2454 22.6451 50.3113 23.3294 48.5148 23.3361H45.3213C35.7376 23.3361 26.1555 23.3311 16.5717 23.3361C14.9301 23.3361 13.9327 24.1453 13.8928 25.4656C13.8528 26.8243 14.8901 27.7134 16.5601 27.7134C23.022 27.7134 29.4855 27.7017 35.9473 27.7017C40.3529 27.7017 44.7602 27.7017 49.1658 27.725C50.3896 27.73 51.2387 28.5575 51.2554 29.6681C51.272 30.7786 50.4179 31.6228 49.2157 31.6727C48.956 31.6844 48.6996 31.6727 48.4448 31.6727H16.7199C14.9301 31.6727 13.8828 32.5002 13.8994 33.8822C13.9161 35.2641 14.9534 36.0567 16.7649 36.0567C19.7719 36.0617 22.7855 36.0617 25.7925 36.0617C33.4332 36.0617 41.0672 36.0567 48.7079 36.0567H49.0359C50.3729 36.1016 51.2271 36.8559 51.2454 38.0047C51.262 39.1886 50.3679 40.0211 48.991 40.0211C42.0529 40.0327 35.1099 40.0261 28.1718 40.0261C24.2074 40.0261 20.2431 40.021 16.2787 40.0377C14.9018 40.0377 13.9444 40.9035 13.8944 42.1106C13.8428 43.3794 14.7885 44.3201 16.2054 44.3983C16.3869 44.41 16.5734 44.4033 16.7549 44.4033C28.1735 44.4033 39.5904 44.42 51.0139 44.3867C56.3036 44.37 60.5061 42.1772 63.5198 37.7949C65.2247 35.3141 67.6256 34.1469 70.566 34.2269C71.2237 34.2435 71.8747 34.2602 72.5307 34.2785C77.8154 34.4316 82.0229 38.764 82.0229 44.0537V56.2198C79.905 55.6088 77.7305 55.0926 75.5044 54.6847C71.4385 53.9321 67.2127 53.5342 62.8687 53.5342C48.5797 53.5342 35.5078 57.8099 25.4196 64.8845C22.5091 66.403 19.8518 68.2828 17.7456 70.8818C17.2411 71.5045 16.8165 72.1389 16.4535 72.7733C9.31734 80.6853 5.09823 90.4839 5.09823 101.098C5.09823 103.732 5.35797 106.32 5.86246 108.84C2.35597 106.801 0 103.013 0 98.669V11.806C0 5.30413 5.26806 0.0360718 11.7632 0.0360718H82.0212V15.3341C82.0212 20.6871 77.7105 25.0594 72.3359 25.1093C71.8597 25.121 71.3852 25.1376 70.909 25.1493C67.9137 25.2625 65.3929 24.2885 63.6763 21.796C60.4828 17.1573 56.1038 14.9595 50.4961 14.9711C39.299 15.0044 28.1019 14.9761 16.8998 14.9828C16.4302 14.9828 15.9374 14.9828 15.4845 15.101C14.4705 15.3674 13.8245 16.3298 13.9094 17.3437Z" fill="url(#paint0_linear_558_15)"/>
<path d="M25.6271 64.3846C25.9168 64.2331 26.2048 64.0832 26.4995 63.9384C33.7789 60.3769 41.4679 58.4722 49.5848 58.9617C55.5821 59.323 60.2774 62.295 63.3826 67.4215C65.5638 71.0229 68.5108 72.5198 72.6866 72.3766L72.7815 72.3733C78.0513 72.1934 82.2304 67.8694 82.2304 62.5964V55.7183C76.2348 53.9833 69.7879 53.0376 63.0729 53.0376C48.7856 53.0376 35.712 57.31 25.6271 64.3846Z" fill="url(#paint1_linear_558_15)"/>
<path d="M82.242 110.017V91.3126C82.242 86.0445 78.0662 81.7289 72.8015 81.5457C72.5834 81.5374 72.3636 81.5307 72.1455 81.5224C68.2627 81.3859 65.5521 83.0092 63.5441 86.3242C60.1341 91.9519 54.996 95.0006 48.4275 95.0755C39.9077 95.1737 31.8491 93.1341 24.4182 88.8734C21.9524 87.4598 19.7013 85.7598 17.9147 83.5121C14.9993 79.8407 14.5881 76.0379 16.6743 72.3516C9.53813 80.2636 5.31403 90.0638 5.31403 100.675C5.31403 103.312 5.57876 105.898 6.07993 108.417C7.81652 109.428 9.82951 110.017 11.984 110.017H82.242Z" fill="url(#paint2_linear_558_15)"/>
<path opacity="0.1" d="M75.6553 54.318C71.5894 53.5654 67.3636 53.1675 63.0196 53.1675C48.7306 53.1675 35.6587 57.4432 25.5704 64.5178C22.66 66.0362 20.0027 67.916 17.8965 70.5151C17.392 71.1378 16.9674 71.7722 16.6044 72.4065C9.46822 80.3186 5.24911 90.1171 5.24911 100.731C5.24911 103.366 5.50885 105.953 6.01334 108.474C2.50685 106.434 0.150879 102.646 0.150879 98.3023V80.5068C13.1395 63.652 36.5028 46.2993 75.6553 54.318Z" fill="black"/>
<defs>
<linearGradient id="paint0_linear_558_15" x1="18.2254" y1="1.93027" x2="48.2614" y2="66.1678" gradientUnits="userSpaceOnUse">
<stop stop-color="#28FB6B"/>
<stop offset="1" stop-color="#03E1E5"/>
</linearGradient>
<linearGradient id="paint1_linear_558_15" x1="51.0995" y1="55.8088" x2="81.7932" y2="101.849" gradientUnits="userSpaceOnUse">
<stop stop-color="#0216FE"/>
<stop offset="1" stop-color="#00AFEC"/>
</linearGradient>
<linearGradient id="paint2_linear_558_15" x1="26.6853" y1="72.1703" x2="57.3791" y2="118.211" gradientUnits="userSpaceOnUse">
<stop stop-color="#0216FE"/>
<stop offset="1" stop-color="#00AFEC"/>
</linearGradient>
</defs>
</svg>
